<?xml version="1.0" standalone="yes"?>
<svg xmlns="http://www.w3.org/2000/svg" width="512" height="512">
<path style="fill:none; stroke:none;" d="M0 0L0 512L60 512C56.1017 509.532 51.7618 508.063 48.0039 505.239C40.3987 499.524 36.0062 491.271 34.591 482C33.7799 476.686 37.123 469.805 34.9329 465C33.3279 461.479 29.6816 458.683 27 456C19.3237 448.32 6.58625 439.467 2.84028 429C-1.40665 417.134 7.31048 408.69 15 401L63 353L98 318C104.511 311.492 111.011 304.396 121 305.097C129.846 305.718 136.142 313.144 142 319L177 354C181.084 351.123 184.471 347.529 188 344C181.657 334.996 172.305 328.496 165.329 320C155.438 307.953 161.283 296.606 171 287.004C177.368 280.712 185.776 275.371 195 279.228C203.226 282.668 209.819 291.832 216 298C218.227 300.222 221.497 304.793 225 304.793C228.17 304.793 230.977 301.007 233 298.999C238.795 293.247 245.292 287.684 250 281C241.459 276.049 235.904 267.043 238.789 257C240.762 250.134 245.751 244.047 249.399 238C256.663 225.958 264.135 214.042 271.399 202C276.974 192.758 282.061 182.137 289.185 174C303.166 158.031 321.863 146.625 336.891 131.715C340.599 128.036 340.946 123.491 343.139 119C346.129 112.878 351.865 107.352 358 104.403C366.701 100.22 377.759 101.947 387 102.83C408.158 104.852 440.792 100.655 451.481 124C455.576 132.942 454.085 143.543 453.17 153C451.698 168.205 451.789 183.979 449 199C444.708 190.949 441.49 182.296 437.691 174C433.028 163.815 427.611 153.605 424 143C422.764 148.168 425.054 154.774 425.92 160L432.08 197C432.919 202.065 432.666 210.391 437.228 213.637C442.044 217.062 448.624 218.882 454 221.306C466.65 227.008 479.391 232.519 492 238.309C502.768 243.253 512.42 250.743 509.721 264C507.503 274.892 496.795 281.659 486 279.84C478.767 278.622 471.636 274.297 465 271.306C453.029 265.909 440.971 260.702 429 255.306C420.71 251.568 410.067 248.566 403.093 242.61C395.661 236.261 395.091 225.975 393.586 217L386.586 175C385.315 167.419 383.331 159.678 383 152C379.807 159.609 381.615 170.757 380.83 179C379.848 189.324 379.619 199.658 378.91 210C377.693 227.774 376.113 243.888 391.004 256.79C400.816 265.292 415.286 269.413 427 274.694C431.581 276.76 437.865 278.402 441.185 282.39C443.856 285.599 445.191 290.225 446.86 294C449.964 301.019 453.114 308.023 456.309 315C462.921 329.442 470.768 343.971 475.921 359C481.171 374.31 483.796 391.184 487.21 407C491.103 425.038 495.423 442.985 499.424 461C501.347 469.655 504.961 479.077 504.921 488C504.873 498.671 496.972 508.045 487 511C493.928 513.907 504.503 512 512 512L512 0L422 0C426.514 2.45721 431.547 3.72308 436 6.46683C445.999 12.6273 453.342 22.614 456.24 34C464.155 65.0945 434.375 95.792 403 88.2508C365.539 79.2466 356.092 30.7043 387 8.15894C391.905 4.58081 397.109 2.36349 403 1C399.041 -0.661072 394.26 0 390 0L367 0L285 0L0 0z"/>
<path style="fill:#000000; stroke:none;" d="M403 0.517761C365.263 8.52045 355.434 60.0421 387 81.7793C391.784 85.0735 397.315 87.3107 403 88.4854C409.343 89.7959 416.66 89.8373 423 88.4822C461.583 80.2357 469.894 25.5818 436 5.87656C431.667 3.35736 426.951 1.35715 422 0.464508C416.227 -0.576355 408.748 -0.701111 403 0.517761M250 281L233 298C231.003 299.989 228.141 303.944 225 303.944C221.247 303.944 217.391 298.39 215 296C208.37 289.371 201.08 278.941 191 278.094C173.996 276.665 155.625 295.842 160.8 313C162.652 319.139 167.613 323.606 172 328C177.135 333.143 182.05 338.808 188 343C184.471 346.529 180.877 349.916 178 354L143 319C137.094 313.097 130.874 305.811 122 305.093C110.391 304.155 103.651 311.35 96 319L65 350L15 400C6.61658 408.384 -1.7659 417.29 2.83951 430C6.63608 440.478 19.3004 449.297 27 457C29.6337 459.635 33.3822 462.451 34.8017 466C36.2671 469.663 34.0799 474.194 34.0787 478C34.0758 487.111 37.6658 496.4 44.1736 502.816C57.2873 515.744 81.0054 515.453 93.5355 501.826C99.3469 495.507 102.194 487.505 102.625 479C102.888 473.817 99.967 468.643 103.333 464C107.334 458.48 113.187 453.813 118 449L146 421L232 335L258 309C263.818 303.182 273.752 296.166 273.64 287C273.602 283.853 272.109 280.88 271 278C280.012 273.14 285.346 258.47 290.681 250C300.538 234.352 308.814 216.433 320.379 202C324.599 196.733 330.196 192.705 335 188C334.491 212.662 331.05 237.342 329.961 262C329.614 269.836 327.567 278.182 328.44 286C330.825 307.369 334.858 328.795 338.414 350C339.85 358.568 343.929 370.654 341.552 379.17C339.017 388.25 334.754 397.171 331.424 406C324.384 424.664 317.236 443.289 310.319 462C305.553 474.889 298.403 489.001 306.966 501.996C315.585 515.076 336.311 515.422 346.319 503.826C350.213 499.315 351.905 493.486 353.95 488L362.95 464C369.794 445.643 376.887 427.377 383.681 409C387.016 399.98 391.972 390.688 392.826 381C393.6 372.22 390.547 362.661 389.272 354C386.029 331.988 381.804 310.069 379 288C383.036 288.749 386.899 288.997 391 289C392.426 297.002 397.338 304.578 400.576 312C406.999 326.726 413.62 341.392 420.309 356C423.3 362.533 427.105 369.129 429.226 376C438.246 405.219 442.661 436.276 449.87 466C452.519 476.92 453.398 489.966 458.674 500C469.669 520.915 503.148 513.148 504.906 490C505.37 483.887 503.485 477.908 502.21 472C499.685 460.304 496.738 448.695 494.21 437C488.644 411.251 484.302 384.083 476.254 359C471.558 344.365 463.854 329.877 457.255 316C453.646 308.41 450.259 300.687 446.86 293C445.235 289.323 443.937 284.658 441.185 281.637C437.02 277.066 428.564 274.845 423 272.424C406.82 265.386 388.386 259.367 380.518 242C376.14 232.338 378.214 221.173 378.91 211C380.25 191.438 382 171.616 382 152C388.182 171.548 389.569 193.768 392.92 214C394.417 223.039 394.586 234.826 401.329 241.787C407.541 248.199 418.96 251.306 427 254.86C439.342 260.317 451.698 265.76 464 271.306C471.296 274.595 478.972 279.16 487 280.203C499.529 281.83 510.334 272.729 510.424 260C510.52 246.438 499.845 241.294 489 236.576C477.274 231.474 465.697 226.032 454 220.86C448.616 218.48 440.691 216.529 436.434 212.362C432.259 208.276 432.508 198.496 431.586 193C428.808 176.43 427.019 159.312 423 143C432.339 160.518 441.6 180.203 448 199C450.341 195.574 449.787 192.005 450.17 188C450.871 180.66 451.574 173.354 452.09 166C453.074 151.955 457.899 134.004 450.468 121C438.867 100.7 407.943 104.736 388 102.83C379.665 102.034 370.276 100.771 362 102.681C354.021 104.522 346.713 110.681 343.139 118C340.937 122.509 340.561 127.093 336.891 130.83C322.362 145.623 304.148 156.715 290.093 172C281.424 181.428 275.724 194.178 268.95 205C262.112 215.924 255.485 226.983 248.797 238C245.319 243.73 240.663 249.48 238.789 256C235.908 266.026 240.06 277.138 250 281z"/>
<path style="fill:none; stroke:none;" d="M334 188C329.536 192.372 324.305 196.117 320.379 201.001C308.57 215.691 300.051 234.023 290.05 250C284.324 259.148 279.46 271.108 271 278C271.974 281.573 273.88 285.213 273.198 289C272.079 295.203 266.206 299.793 262 304L235 331C192.668 373.332 150.187 415.522 108.001 458C105.691 460.325 102.69 462.777 101.643 466C99.9359 471.254 102.771 478.282 101.854 484C99.8049 496.784 89.5088 507.847 77 511C83.4361 513.701 93.049 512 100 512L149 512L321 512C313.072 507.451 305.498 502.748 303.39 493C301.289 483.284 306.249 473.823 309.576 465C316.366 447 323.23 429.026 329.95 411C332.56 403.998 335.112 396.968 337.811 390C339.423 385.838 341.775 381.499 342.197 377C343.085 367.515 339.627 356.358 338.08 347C333.99 322.256 327.37 296.086 329.09 271L333.09 213C333.585 205.771 336.797 194.727 334 188M379 288C380.769 310.378 385.999 332.787 389.272 355C390.456 363.043 393.249 371.847 392.79 380C392.268 389.276 387.249 398.42 384.05 407C377.703 424.024 371.373 441.058 364.811 458C361.34 466.96 358.013 475.988 354.681 485C350.546 496.186 346.574 507.274 334 511C338.215 512.769 343.465 512 348 512L376 512L473 512C468.514 508.886 463.93 506.501 460.558 501.996C453.475 492.532 452.779 477.236 450.116 466C442.99 435.937 438.337 404.514 429.226 375C426.994 367.769 422.937 360.906 419.861 354C413.175 338.986 406.534 323.944 399.691 309C396.699 302.464 392.991 295.911 391 289C386.92 288.989 383.037 288.51 379 288M66.0039 468.668C53.7037 472.208 58.4296 490.969 70.9961 487.566C83.1067 484.286 77.9118 465.241 66.0039 468.668z"/>
</svg>
